<svg viewBox="0 0 1000 700" xmlns="http://www.w3.org/2000/svg" aria-label="ABU track outline">
  <rect width="1000" height="700" fill="transparent"/>
  <path d="M 180 500 L 140 410 L 170 290 L 270 210 L 390 160 L 520 170 L 630 210 L 740 180 L 840 240 L 870 350 L 820 470 L 720 550 L 590 570 L 500 520 L 410 460 L 320 520 L 240 580 Z" fill="none" stroke="#111827" stroke-width="34" stroke-linejoin="round" stroke-linecap="round" opacity="0.95"/>
  <path d="M 180 500 L 140 410 L 170 290 L 270 210 L 390 160 L 520 170 L 630 210 L 740 180 L 840 240 L 870 350 L 820 470 L 720 550 L 590 570 L 500 520 L 410 460 L 320 520 L 240 580 Z" fill="none" stroke="#ff2d55" stroke-width="18" stroke-linejoin="round" stroke-linecap="round" opacity="1"/>
  <path d="M 180 500 L 140 410 L 170 290 L 270 210 L 390 160 L 520 170 L 630 210 L 740 180 L 840 240 L 870 350 L 820 470 L 720 550 L 590 570 L 500 520 L 410 460 L 320 520 L 240 580 Z" fill="none" stroke="#ffffff" stroke-width="4" stroke-linejoin="round" stroke-linecap="round" opacity="0.75"/>
  <line x1="142.0" y1="437.0" x2="178.0" y2="473.0" stroke="#ffffff" stroke-width="6" stroke-linecap="round" opacity="1"/>
  <line x1="142.0" y1="473.0" x2="178.0" y2="437.0" stroke="#111827" stroke-width="4" stroke-linecap="round" opacity="1"/>
  <text x="500" y="655" text-anchor="middle" font-family="Arial, Helvetica, sans-serif" font-size="34" font-weight="700" fill="#ff2d55">ABU</text>
</svg>
