<svg viewBox="0 0 1000 700" xmlns="http://www.w3.org/2000/svg" aria-label="ABU track layout">
  <rect width="1000" height="700" fill="transparent"/>
  <path d="M176,497 C150,451 150,394 169,347 C194,286 241,234 296,199 C352,163 419,149 486,148 C547,147 607,162 667,175 C711,184 751,168 797,171 C841,174 880,199 885,244 C890,284 858,315 844,349 C830,384 840,428 823,461 C798,509 746,541 695,555 C636,571 573,566 513,558 C464,551 418,543 373,565 C328,586 279,595 233,572 C195,553 195,530 176,497 Z" fill="none" stroke="#0f172a" stroke-width="34" stroke-linejoin="round" stroke-linecap="round" opacity="0.98"/>
  <path d="M176,497 C150,451 150,394 169,347 C194,286 241,234 296,199 C352,163 419,149 486,148 C547,147 607,162 667,175 C711,184 751,168 797,171 C841,174 880,199 885,244 C890,284 858,315 844,349 C830,384 840,428 823,461 C798,509 746,541 695,555 C636,571 573,566 513,558 C464,551 418,543 373,565 C328,586 279,595 233,572 C195,553 195,530 176,497 Z" fill="none" stroke="#ef4444" stroke-width="18" stroke-linejoin="round" stroke-linecap="round" opacity="1"/>
  <path d="M176,497 C150,451 150,394 169,347 C194,286 241,234 296,199 C352,163 419,149 486,148 C547,147 607,162 667,175 C711,184 751,168 797,171 C841,174 880,199 885,244 C890,284 858,315 844,349 C830,384 840,428 823,461 C798,509 746,541 695,555 C636,571 573,566 513,558 C464,551 418,543 373,565 C328,586 279,595 233,572 C195,553 195,530 176,497 Z" fill="none" stroke="#ffffff" stroke-width="4" stroke-linejoin="round" stroke-linecap="round" opacity="0.75"/>
  <text x="500" y="654" text-anchor="middle" font-family="Arial, Helvetica, sans-serif" font-size="34" font-weight="700" fill="#ef4444">ABU</text>
</svg>