<svg viewBox="0 0 1000 700" xmlns="http://www.w3.org/2000/svg" aria-label="AUS track layout">
  <rect width="1000" height="700" fill="transparent"/>
  <path d="M180,515 C145,470 135,400 160,330 C175,285 215,235 245,190 C270,150 315,110 370,95 C430,78 500,88 560,108 C620,130 700,136 760,170 C815,202 860,260 874,324 C886,378 868,444 830,494 C795,540 736,570 676,579 C622,586 575,568 525,538 C488,516 455,510 420,518 C364,530 334,576 275,582 C237,586 207,560 180,515 Z" fill="none" stroke="#0f172a" stroke-width="34" stroke-linejoin="round" stroke-linecap="round" opacity="0.98"/>
  <path d="M180,515 C145,470 135,400 160,330 C175,285 215,235 245,190 C270,150 315,110 370,95 C430,78 500,88 560,108 C620,130 700,136 760,170 C815,202 860,260 874,324 C886,378 868,444 830,494 C795,540 736,570 676,579 C622,586 575,568 525,538 C488,516 455,510 420,518 C364,530 334,576 275,582 C237,586 207,560 180,515 Z" fill="none" stroke="#ef4444" stroke-width="18" stroke-linejoin="round" stroke-linecap="round" opacity="1"/>
  <path d="M180,515 C145,470 135,400 160,330 C175,285 215,235 245,190 C270,150 315,110 370,95 C430,78 500,88 560,108 C620,130 700,136 760,170 C815,202 860,260 874,324 C886,378 868,444 830,494 C795,540 736,570 676,579 C622,586 575,568 525,538 C488,516 455,510 420,518 C364,530 334,576 275,582 C237,586 207,560 180,515 Z" fill="none" stroke="#ffffff" stroke-width="4" stroke-linejoin="round" stroke-linecap="round" opacity="0.75"/>
  <text x="500" y="654" text-anchor="middle" font-family="Arial, Helvetica, sans-serif" font-size="34" font-weight="700" fill="#ef4444">AUS</text>
</svg>