<svg viewBox="0 0 1000 700" xmlns="http://www.w3.org/2000/svg" aria-label="AUS track outline">
  <rect width="1000" height="700" fill="transparent"/>
  <path d="M 190 510 L 140 430 L 150 310 L 210 220 L 260 140 L 360 120 L 470 150 L 560 110 L 650 120 L 720 180 L 810 220 L 850 320 L 830 430 L 760 520 L 650 560 L 560 520 L 490 470 L 410 500 L 320 560 L 240 570 Z" fill="none" stroke="#111827" stroke-width="34" stroke-linejoin="round" stroke-linecap="round" opacity="0.95"/>
  <path d="M 190 510 L 140 430 L 150 310 L 210 220 L 260 140 L 360 120 L 470 150 L 560 110 L 650 120 L 720 180 L 810 220 L 850 320 L 830 430 L 760 520 L 650 560 L 560 520 L 490 470 L 410 500 L 320 560 L 240 570 Z" fill="none" stroke="#ff2d55" stroke-width="18" stroke-linejoin="round" stroke-linecap="round" opacity="1"/>
  <path d="M 190 510 L 140 430 L 150 310 L 210 220 L 260 140 L 360 120 L 470 150 L 560 110 L 650 120 L 720 180 L 810 220 L 850 320 L 830 430 L 760 520 L 650 560 L 560 520 L 490 470 L 410 500 L 320 560 L 240 570 Z" fill="none" stroke="#ffffff" stroke-width="4" stroke-linejoin="round" stroke-linecap="round" opacity="0.75"/>
  <line x1="147.0" y1="452.0" x2="183.0" y2="488.0" stroke="#ffffff" stroke-width="6" stroke-linecap="round" opacity="1"/>
  <line x1="147.0" y1="488.0" x2="183.0" y2="452.0" stroke="#111827" stroke-width="4" stroke-linecap="round" opacity="1"/>
  <text x="500" y="655" text-anchor="middle" font-family="Arial, Helvetica, sans-serif" font-size="34" font-weight="700" fill="#ff2d55">AUS</text>
</svg>
