<svg viewBox="0 0 1000 700" xmlns="http://www.w3.org/2000/svg" aria-label="AZE track outline">
  <rect width="1000" height="700" fill="transparent"/>
  <path d="M 150 540 L 140 430 L 170 320 L 260 250 L 380 210 L 470 170 L 560 140 L 670 180 L 760 240 L 830 340 L 820 450 L 730 540 L 620 580 L 500 560 L 420 490 L 310 510 L 250 590 Z" fill="none" stroke="#111827" stroke-width="34" stroke-linejoin="round" stroke-linecap="round" opacity="0.95"/>
  <path d="M 150 540 L 140 430 L 170 320 L 260 250 L 380 210 L 470 170 L 560 140 L 670 180 L 760 240 L 830 340 L 820 450 L 730 540 L 620 580 L 500 560 L 420 490 L 310 510 L 250 590 Z" fill="none" stroke="#ff2d55" stroke-width="18" stroke-linejoin="round" stroke-linecap="round" opacity="1"/>
  <path d="M 150 540 L 140 430 L 170 320 L 260 250 L 380 210 L 470 170 L 560 140 L 670 180 L 760 240 L 830 340 L 820 450 L 730 540 L 620 580 L 500 560 L 420 490 L 310 510 L 250 590 Z" fill="none" stroke="#ffffff" stroke-width="4" stroke-linejoin="round" stroke-linecap="round" opacity="0.75"/>
  <line x1="127.0" y1="467.0" x2="163.0" y2="503.0" stroke="#ffffff" stroke-width="6" stroke-linecap="round" opacity="1"/>
  <line x1="127.0" y1="503.0" x2="163.0" y2="467.0" stroke="#111827" stroke-width="4" stroke-linecap="round" opacity="1"/>
  <text x="500" y="655" text-anchor="middle" font-family="Arial, Helvetica, sans-serif" font-size="34" font-weight="700" fill="#ff2d55">AZE</text>
</svg>
