<svg viewBox="0 0 1000 700" xmlns="http://www.w3.org/2000/svg" aria-label="AZE track layout">
  <rect width="1000" height="700" fill="transparent"/>
  <path d="M156,541 C137,485 135,422 163,370 C191,320 245,287 295,258 C349,227 405,211 451,170 C499,128 540,98 605,99 C665,100 724,135 765,179 C809,226 840,287 840,351 C840,409 823,468 783,510 C741,554 680,578 620,585 C569,590 528,580 479,564 C435,550 390,524 344,535 C298,547 251,603 203,583 C177,573 164,565 156,541 Z" fill="none" stroke="#0f172a" stroke-width="34" stroke-linejoin="round" stroke-linecap="round" opacity="0.98"/>
  <path d="M156,541 C137,485 135,422 163,370 C191,320 245,287 295,258 C349,227 405,211 451,170 C499,128 540,98 605,99 C665,100 724,135 765,179 C809,226 840,287 840,351 C840,409 823,468 783,510 C741,554 680,578 620,585 C569,590 528,580 479,564 C435,550 390,524 344,535 C298,547 251,603 203,583 C177,573 164,565 156,541 Z" fill="none" stroke="#ef4444" stroke-width="18" stroke-linejoin="round" stroke-linecap="round" opacity="1"/>
  <path d="M156,541 C137,485 135,422 163,370 C191,320 245,287 295,258 C349,227 405,211 451,170 C499,128 540,98 605,99 C665,100 724,135 765,179 C809,226 840,287 840,351 C840,409 823,468 783,510 C741,554 680,578 620,585 C569,590 528,580 479,564 C435,550 390,524 344,535 C298,547 251,603 203,583 C177,573 164,565 156,541 Z" fill="none" stroke="#ffffff" stroke-width="4" stroke-linejoin="round" stroke-linecap="round" opacity="0.75"/>
  <text x="500" y="654" text-anchor="middle" font-family="Arial, Helvetica, sans-serif" font-size="34" font-weight="700" fill="#ef4444">AZE</text>
</svg>