<svg viewBox="0 0 1000 700" xmlns="http://www.w3.org/2000/svg" aria-label="BAH track layout">
  <rect width="1000" height="700" fill="transparent"/>
  <path d="M235,505 C195,470 184,420 194,368 C205,308 212,250 255,214 C301,176 378,168 447,163 C510,158 582,160 634,199 C683,236 714,227 768,238 C822,249 862,288 870,338 C878,384 858,443 822,484 C785,525 725,539 672,535 C629,532 592,512 554,496 C525,484 497,467 468,474 C429,484 414,529 377,548 C345,565 302,562 274,543 C257,531 247,519 235,505 Z" fill="none" stroke="#0f172a" stroke-width="34" stroke-linejoin="round" stroke-linecap="round" opacity="0.98"/>
  <path d="M235,505 C195,470 184,420 194,368 C205,308 212,250 255,214 C301,176 378,168 447,163 C510,158 582,160 634,199 C683,236 714,227 768,238 C822,249 862,288 870,338 C878,384 858,443 822,484 C785,525 725,539 672,535 C629,532 592,512 554,496 C525,484 497,467 468,474 C429,484 414,529 377,548 C345,565 302,562 274,543 C257,531 247,519 235,505 Z" fill="none" stroke="#ef4444" stroke-width="18" stroke-linejoin="round" stroke-linecap="round" opacity="1"/>
  <path d="M235,505 C195,470 184,420 194,368 C205,308 212,250 255,214 C301,176 378,168 447,163 C510,158 582,160 634,199 C683,236 714,227 768,238 C822,249 862,288 870,338 C878,384 858,443 822,484 C785,525 725,539 672,535 C629,532 592,512 554,496 C525,484 497,467 468,474 C429,484 414,529 377,548 C345,565 302,562 274,543 C257,531 247,519 235,505 Z" fill="none" stroke="#ffffff" stroke-width="4" stroke-linejoin="round" stroke-linecap="round" opacity="0.75"/>
  <text x="500" y="654" text-anchor="middle" font-family="Arial, Helvetica, sans-serif" font-size="34" font-weight="700" fill="#ef4444">BAH</text>
</svg>