<svg viewBox="0 0 1000 700" xmlns="http://www.w3.org/2000/svg" aria-label="BAH track outline">
  <rect width="1000" height="700" fill="transparent"/>
  <path d="M 220 470 L 180 380 L 210 250 L 320 170 L 430 150 L 540 180 L 610 230 L 700 220 L 800 260 L 840 360 L 780 460 L 690 520 L 580 500 L 510 450 L 440 490 L 350 540 L 260 520 Z" fill="none" stroke="#111827" stroke-width="34" stroke-linejoin="round" stroke-linecap="round" opacity="0.95"/>
  <path d="M 220 470 L 180 380 L 210 250 L 320 170 L 430 150 L 540 180 L 610 230 L 700 220 L 800 260 L 840 360 L 780 460 L 690 520 L 580 500 L 510 450 L 440 490 L 350 540 L 260 520 Z" fill="none" stroke="#ff2d55" stroke-width="18" stroke-linejoin="round" stroke-linecap="round" opacity="1"/>
  <path d="M 220 470 L 180 380 L 210 250 L 320 170 L 430 150 L 540 180 L 610 230 L 700 220 L 800 260 L 840 360 L 780 460 L 690 520 L 580 500 L 510 450 L 440 490 L 350 540 L 260 520 Z" fill="none" stroke="#ffffff" stroke-width="4" stroke-linejoin="round" stroke-linecap="round" opacity="0.75"/>
  <line x1="182.0" y1="407.0" x2="218.0" y2="443.0" stroke="#ffffff" stroke-width="6" stroke-linecap="round" opacity="1"/>
  <line x1="182.0" y1="443.0" x2="218.0" y2="407.0" stroke="#111827" stroke-width="4" stroke-linecap="round" opacity="1"/>
  <text x="500" y="655" text-anchor="middle" font-family="Arial, Helvetica, sans-serif" font-size="34" font-weight="700" fill="#ff2d55">BAH</text>
</svg>
