<svg viewBox="0 0 1000 700" xmlns="http://www.w3.org/2000/svg" aria-label="BCN track outline">
  <rect width="1000" height="700" fill="transparent"/>
  <path d="M 240 520 L 170 450 L 180 340 L 260 250 L 390 190 L 520 170 L 650 200 L 740 270 L 770 380 L 730 480 L 640 540 L 510 540 L 420 500 L 340 470 L 280 540 Z" fill="none" stroke="#111827" stroke-width="34" stroke-linejoin="round" stroke-linecap="round" opacity="0.95"/>
  <path d="M 240 520 L 170 450 L 180 340 L 260 250 L 390 190 L 520 170 L 650 200 L 740 270 L 770 380 L 730 480 L 640 540 L 510 540 L 420 500 L 340 470 L 280 540 Z" fill="none" stroke="#ff2d55" stroke-width="18" stroke-linejoin="round" stroke-linecap="round" opacity="1"/>
  <path d="M 240 520 L 170 450 L 180 340 L 260 250 L 390 190 L 520 170 L 650 200 L 740 270 L 770 380 L 730 480 L 640 540 L 510 540 L 420 500 L 340 470 L 280 540 Z" fill="none" stroke="#ffffff" stroke-width="4" stroke-linejoin="round" stroke-linecap="round" opacity="0.75"/>
  <line x1="187.0" y1="467.0" x2="223.0" y2="503.0" stroke="#ffffff" stroke-width="6" stroke-linecap="round" opacity="1"/>
  <line x1="187.0" y1="503.0" x2="223.0" y2="467.0" stroke="#111827" stroke-width="4" stroke-linecap="round" opacity="1"/>
  <text x="500" y="655" text-anchor="middle" font-family="Arial, Helvetica, sans-serif" font-size="34" font-weight="700" fill="#ff2d55">BCN</text>
</svg>
