<svg viewBox="0 0 1000 700" xmlns="http://www.w3.org/2000/svg" aria-label="BEL track outline">
  <rect width="1000" height="700" fill="transparent"/>
  <path d="M 180 520 L 140 420 L 200 300 L 320 220 L 450 150 L 570 170 L 690 220 L 790 310 L 820 430 L 760 540 L 640 590 L 510 560 L 430 480 L 330 450 L 260 550 Z" fill="none" stroke="#111827" stroke-width="34" stroke-linejoin="round" stroke-linecap="round" opacity="0.95"/>
  <path d="M 180 520 L 140 420 L 200 300 L 320 220 L 450 150 L 570 170 L 690 220 L 790 310 L 820 430 L 760 540 L 640 590 L 510 560 L 430 480 L 330 450 L 260 550 Z" fill="none" stroke="#ff2d55" stroke-width="18" stroke-linejoin="round" stroke-linecap="round" opacity="1"/>
  <path d="M 180 520 L 140 420 L 200 300 L 320 220 L 450 150 L 570 170 L 690 220 L 790 310 L 820 430 L 760 540 L 640 590 L 510 560 L 430 480 L 330 450 L 260 550 Z" fill="none" stroke="#ffffff" stroke-width="4" stroke-linejoin="round" stroke-linecap="round" opacity="0.75"/>
  <line x1="142.0" y1="452.0" x2="178.0" y2="488.0" stroke="#ffffff" stroke-width="6" stroke-linecap="round" opacity="1"/>
  <line x1="142.0" y1="488.0" x2="178.0" y2="452.0" stroke="#111827" stroke-width="4" stroke-linecap="round" opacity="1"/>
  <text x="500" y="655" text-anchor="middle" font-family="Arial, Helvetica, sans-serif" font-size="34" font-weight="700" fill="#ff2d55">BEL</text>
</svg>
