<svg viewBox="0 0 1000 700" xmlns="http://www.w3.org/2000/svg" aria-label="BEL track layout">
  <rect width="1000" height="700" fill="transparent"/>
  <path d="M167,521 C145,470 145,406 169,357 C197,301 251,262 307,227 C359,195 409,149 471,141 C532,133 595,158 651,182 C715,209 781,244 807,309 C829,366 811,435 773,482 C736,527 677,560 615,574 C553,589 488,592 426,579 C366,566 305,553 246,536 C218,528 187,554 167,521 Z" fill="none" stroke="#0f172a" stroke-width="34" stroke-linejoin="round" stroke-linecap="round" opacity="0.98"/>
  <path d="M167,521 C145,470 145,406 169,357 C197,301 251,262 307,227 C359,195 409,149 471,141 C532,133 595,158 651,182 C715,209 781,244 807,309 C829,366 811,435 773,482 C736,527 677,560 615,574 C553,589 488,592 426,579 C366,566 305,553 246,536 C218,528 187,554 167,521 Z" fill="none" stroke="#ef4444" stroke-width="18" stroke-linejoin="round" stroke-linecap="round" opacity="1"/>
  <path d="M167,521 C145,470 145,406 169,357 C197,301 251,262 307,227 C359,195 409,149 471,141 C532,133 595,158 651,182 C715,209 781,244 807,309 C829,366 811,435 773,482 C736,527 677,560 615,574 C553,589 488,592 426,579 C366,566 305,553 246,536 C218,528 187,554 167,521 Z" fill="none" stroke="#ffffff" stroke-width="4" stroke-linejoin="round" stroke-linecap="round" opacity="0.75"/>
  <text x="500" y="654" text-anchor="middle" font-family="Arial, Helvetica, sans-serif" font-size="34" font-weight="700" fill="#ef4444">BEL</text>
</svg>