<svg viewBox="0 0 1000 700" xmlns="http://www.w3.org/2000/svg" aria-label="BRA track layout">
  <rect width="1000" height="700" fill="transparent"/>
  <path d="M251,538 C214,514 191,476 187,431 C183,384 207,340 243,311 C285,277 344,269 385,234 C420,205 439,146 486,144 C536,141 557,206 603,227 C657,250 731,235 778,274 C823,311 842,373 823,426 C806,474 760,510 711,531 C664,550 614,551 566,545 C521,540 479,531 436,549 C394,566 366,608 320,596 C292,589 275,553 251,538 Z" fill="none" stroke="#0f172a" stroke-width="34" stroke-linejoin="round" stroke-linecap="round" opacity="0.98"/>
  <path d="M251,538 C214,514 191,476 187,431 C183,384 207,340 243,311 C285,277 344,269 385,234 C420,205 439,146 486,144 C536,141 557,206 603,227 C657,250 731,235 778,274 C823,311 842,373 823,426 C806,474 760,510 711,531 C664,550 614,551 566,545 C521,540 479,531 436,549 C394,566 366,608 320,596 C292,589 275,553 251,538 Z" fill="none" stroke="#ef4444" stroke-width="18" stroke-linejoin="round" stroke-linecap="round" opacity="1"/>
  <path d="M251,538 C214,514 191,476 187,431 C183,384 207,340 243,311 C285,277 344,269 385,234 C420,205 439,146 486,144 C536,141 557,206 603,227 C657,250 731,235 778,274 C823,311 842,373 823,426 C806,474 760,510 711,531 C664,550 614,551 566,545 C521,540 479,531 436,549 C394,566 366,608 320,596 C292,589 275,553 251,538 Z" fill="none" stroke="#ffffff" stroke-width="4" stroke-linejoin="round" stroke-linecap="round" opacity="0.75"/>
  <text x="500" y="654" text-anchor="middle" font-family="Arial, Helvetica, sans-serif" font-size="34" font-weight="700" fill="#ef4444">BRA</text>
</svg>