<svg viewBox="0 0 1000 700" xmlns="http://www.w3.org/2000/svg" aria-label="BRA track outline">
  <rect width="1000" height="700" fill="transparent"/>
  <path d="M 250 520 L 180 450 L 160 350 L 220 260 L 330 210 L 470 190 L 620 200 L 760 250 L 830 340 L 820 440 L 740 520 L 620 560 L 500 540 L 420 470 L 350 520 Z" fill="none" stroke="#111827" stroke-width="34" stroke-linejoin="round" stroke-linecap="round" opacity="0.95"/>
  <path d="M 250 520 L 180 450 L 160 350 L 220 260 L 330 210 L 470 190 L 620 200 L 760 250 L 830 340 L 820 440 L 740 520 L 620 560 L 500 540 L 420 470 L 350 520 Z" fill="none" stroke="#ff2d55" stroke-width="18" stroke-linejoin="round" stroke-linecap="round" opacity="1"/>
  <path d="M 250 520 L 180 450 L 160 350 L 220 260 L 330 210 L 470 190 L 620 200 L 760 250 L 830 340 L 820 440 L 740 520 L 620 560 L 500 540 L 420 470 L 350 520 Z" fill="none" stroke="#ffffff" stroke-width="4" stroke-linejoin="round" stroke-linecap="round" opacity="0.75"/>
  <line x1="197.0" y1="467.0" x2="233.0" y2="503.0" stroke="#ffffff" stroke-width="6" stroke-linecap="round" opacity="1"/>
  <line x1="197.0" y1="503.0" x2="233.0" y2="467.0" stroke="#111827" stroke-width="4" stroke-linecap="round" opacity="1"/>
  <text x="500" y="655" text-anchor="middle" font-family="Arial, Helvetica, sans-serif" font-size="34" font-weight="700" fill="#ff2d55">BRA</text>
</svg>
