<svg viewBox="0 0 1000 700" xmlns="http://www.w3.org/2000/svg" aria-label="CAN track layout">
  <rect width="1000" height="700" fill="transparent"/>
  <path d="M144,430 C127,379 131,313 157,267 C188,214 243,186 304,176 C369,166 430,183 492,170 C546,159 587,129 643,133 C708,137 779,174 815,227 C846,271 842,327 811,371 C783,411 731,428 694,455 C661,480 640,514 609,542 C577,570 539,582 497,576 C465,571 440,544 407,545 C367,546 341,582 302,586 C257,590 210,566 179,535 C159,516 153,460 144,430 Z" fill="none" stroke="#0f172a" stroke-width="34" stroke-linejoin="round" stroke-linecap="round" opacity="0.98"/>
  <path d="M144,430 C127,379 131,313 157,267 C188,214 243,186 304,176 C369,166 430,183 492,170 C546,159 587,129 643,133 C708,137 779,174 815,227 C846,271 842,327 811,371 C783,411 731,428 694,455 C661,480 640,514 609,542 C577,570 539,582 497,576 C465,571 440,544 407,545 C367,546 341,582 302,586 C257,590 210,566 179,535 C159,516 153,460 144,430 Z" fill="none" stroke="#ef4444" stroke-width="18" stroke-linejoin="round" stroke-linecap="round" opacity="1"/>
  <path d="M144,430 C127,379 131,313 157,267 C188,214 243,186 304,176 C369,166 430,183 492,170 C546,159 587,129 643,133 C708,137 779,174 815,227 C846,271 842,327 811,371 C783,411 731,428 694,455 C661,480 640,514 609,542 C577,570 539,582 497,576 C465,571 440,544 407,545 C367,546 341,582 302,586 C257,590 210,566 179,535 C159,516 153,460 144,430 Z" fill="none" stroke="#ffffff" stroke-width="4" stroke-linejoin="round" stroke-linecap="round" opacity="0.75"/>
  <text x="500" y="654" text-anchor="middle" font-family="Arial, Helvetica, sans-serif" font-size="34" font-weight="700" fill="#ef4444">CAN</text>
</svg>