<svg viewBox="0 0 1000 700" xmlns="http://www.w3.org/2000/svg" aria-label="CAN track outline">
  <rect width="1000" height="700" fill="transparent"/>
  <path d="M 150 430 L 130 330 L 180 230 L 290 180 L 410 180 L 520 150 L 650 170 L 770 240 L 830 340 L 790 450 L 690 520 L 560 500 L 470 460 L 390 520 L 290 550 L 210 520 Z" fill="none" stroke="#111827" stroke-width="34" stroke-linejoin="round" stroke-linecap="round" opacity="0.95"/>
  <path d="M 150 430 L 130 330 L 180 230 L 290 180 L 410 180 L 520 150 L 650 170 L 770 240 L 830 340 L 790 450 L 690 520 L 560 500 L 470 460 L 390 520 L 290 550 L 210 520 Z" fill="none" stroke="#ff2d55" stroke-width="18" stroke-linejoin="round" stroke-linecap="round" opacity="1"/>
  <path d="M 150 430 L 130 330 L 180 230 L 290 180 L 410 180 L 520 150 L 650 170 L 770 240 L 830 340 L 790 450 L 690 520 L 560 500 L 470 460 L 390 520 L 290 550 L 210 520 Z" fill="none" stroke="#ffffff" stroke-width="4" stroke-linejoin="round" stroke-linecap="round" opacity="0.75"/>
  <line x1="122.0" y1="362.0" x2="158.0" y2="398.0" stroke="#ffffff" stroke-width="6" stroke-linecap="round" opacity="1"/>
  <line x1="122.0" y1="398.0" x2="158.0" y2="362.0" stroke="#111827" stroke-width="4" stroke-linecap="round" opacity="1"/>
  <text x="500" y="655" text-anchor="middle" font-family="Arial, Helvetica, sans-serif" font-size="34" font-weight="700" fill="#ff2d55">CAN</text>
</svg>
