<svg viewBox="0 0 1000 700" xmlns="http://www.w3.org/2000/svg" aria-label="CHN track layout">
  <rect width="1000" height="700" fill="transparent"/>
  <path d="M193,497 C166,456 148,398 159,346 C173,282 217,230 278,213 C320,201 362,210 403,205 C431,202 447,184 469,165 C500,138 529,112 572,104 C638,91 718,112 768,157 C811,195 832,247 829,300 C827,341 816,379 791,412 C765,447 732,466 696,487 C665,505 647,521 648,558 C649,578 635,590 615,588 C575,584 561,532 522,518 C478,503 444,543 403,555 C359,569 307,562 267,544 C234,529 215,531 193,497 Z" fill="none" stroke="#0f172a" stroke-width="34" stroke-linejoin="round" stroke-linecap="round" opacity="0.98"/>
  <path d="M193,497 C166,456 148,398 159,346 C173,282 217,230 278,213 C320,201 362,210 403,205 C431,202 447,184 469,165 C500,138 529,112 572,104 C638,91 718,112 768,157 C811,195 832,247 829,300 C827,341 816,379 791,412 C765,447 732,466 696,487 C665,505 647,521 648,558 C649,578 635,590 615,588 C575,584 561,532 522,518 C478,503 444,543 403,555 C359,569 307,562 267,544 C234,529 215,531 193,497 Z" fill="none" stroke="#ef4444" stroke-width="18" stroke-linejoin="round" stroke-linecap="round" opacity="1"/>
  <path d="M193,497 C166,456 148,398 159,346 C173,282 217,230 278,213 C320,201 362,210 403,205 C431,202 447,184 469,165 C500,138 529,112 572,104 C638,91 718,112 768,157 C811,195 832,247 829,300 C827,341 816,379 791,412 C765,447 732,466 696,487 C665,505 647,521 648,558 C649,578 635,590 615,588 C575,584 561,532 522,518 C478,503 444,543 403,555 C359,569 307,562 267,544 C234,529 215,531 193,497 Z" fill="none" stroke="#ffffff" stroke-width="4" stroke-linejoin="round" stroke-linecap="round" opacity="0.75"/>
  <text x="500" y="654" text-anchor="middle" font-family="Arial, Helvetica, sans-serif" font-size="34" font-weight="700" fill="#ef4444">CHN</text>
</svg>