<svg viewBox="0 0 1000 700" xmlns="http://www.w3.org/2000/svg" aria-label="CHN track outline">
  <rect width="1000" height="700" fill="transparent"/>
  <path d="M 180 500 L 160 390 L 220 280 L 320 220 L 470 220 L 600 170 L 730 190 L 820 260 L 820 380 L 760 470 L 650 520 L 520 530 L 430 470 L 340 460 L 280 520 Z" fill="none" stroke="#111827" stroke-width="34" stroke-linejoin="round" stroke-linecap="round" opacity="0.95"/>
  <path d="M 180 500 L 160 390 L 220 280 L 320 220 L 470 220 L 600 170 L 730 190 L 820 260 L 820 380 L 760 470 L 650 520 L 520 530 L 430 470 L 340 460 L 280 520 Z" fill="none" stroke="#ff2d55" stroke-width="18" stroke-linejoin="round" stroke-linecap="round" opacity="1"/>
  <path d="M 180 500 L 160 390 L 220 280 L 320 220 L 470 220 L 600 170 L 730 190 L 820 260 L 820 380 L 760 470 L 650 520 L 520 530 L 430 470 L 340 460 L 280 520 Z" fill="none" stroke="#ffffff" stroke-width="4" stroke-linejoin="round" stroke-linecap="round" opacity="0.75"/>
  <line x1="152.0" y1="427.0" x2="188.0" y2="463.0" stroke="#ffffff" stroke-width="6" stroke-linecap="round" opacity="1"/>
  <line x1="152.0" y1="463.0" x2="188.0" y2="427.0" stroke="#111827" stroke-width="4" stroke-linecap="round" opacity="1"/>
  <text x="500" y="655" text-anchor="middle" font-family="Arial, Helvetica, sans-serif" font-size="34" font-weight="700" fill="#ff2d55">CHN</text>
</svg>
