<svg viewBox="0 0 1000 700" xmlns="http://www.w3.org/2000/svg" aria-label="USA track layout">
  <rect width="1000" height="700" fill="transparent"/>
  <path d="M215,519 C184,473 176,409 193,357 C214,294 264,247 321,214 C378,181 442,156 506,133 C562,114 621,114 679,128 C733,142 785,173 816,220 C847,267 845,325 822,377 C801,425 759,463 712,489 C659,519 605,530 549,542 C496,554 468,603 412,609 C356,614 313,573 259,558 C237,552 227,537 215,519 Z" fill="none" stroke="#0f172a" stroke-width="34" stroke-linejoin="round" stroke-linecap="round" opacity="0.98"/>
  <path d="M215,519 C184,473 176,409 193,357 C214,294 264,247 321,214 C378,181 442,156 506,133 C562,114 621,114 679,128 C733,142 785,173 816,220 C847,267 845,325 822,377 C801,425 759,463 712,489 C659,519 605,530 549,542 C496,554 468,603 412,609 C356,614 313,573 259,558 C237,552 227,537 215,519 Z" fill="none" stroke="#ef4444" stroke-width="18" stroke-linejoin="round" stroke-linecap="round" opacity="1"/>
  <path d="M215,519 C184,473 176,409 193,357 C214,294 264,247 321,214 C378,181 442,156 506,133 C562,114 621,114 679,128 C733,142 785,173 816,220 C847,267 845,325 822,377 C801,425 759,463 712,489 C659,519 605,530 549,542 C496,554 468,603 412,609 C356,614 313,573 259,558 C237,552 227,537 215,519 Z" fill="none" stroke="#ffffff" stroke-width="4" stroke-linejoin="round" stroke-linecap="round" opacity="0.75"/>
  <text x="500" y="654" text-anchor="middle" font-family="Arial, Helvetica, sans-serif" font-size="34" font-weight="700" fill="#ef4444">COTA</text>
</svg>