<svg viewBox="0 0 1000 700" xmlns="http://www.w3.org/2000/svg" aria-label="BCN track layout">
  <rect width="1000" height="700" fill="transparent"/>
  <path d="M248,520 C217,492 184,449 184,406 C185,355 214,315 248,281 C287,243 333,205 386,185 C454,159 529,157 600,163 C662,169 720,200 758,247 C791,288 808,344 795,396 C781,451 736,494 687,520 C637,547 578,555 522,553 C487,552 457,551 429,529 C401,507 384,470 349,468 C314,466 290,510 258,525 Z" fill="none" stroke="#0f172a" stroke-width="34" stroke-linejoin="round" stroke-linecap="round" opacity="0.98"/>
  <path d="M248,520 C217,492 184,449 184,406 C185,355 214,315 248,281 C287,243 333,205 386,185 C454,159 529,157 600,163 C662,169 720,200 758,247 C791,288 808,344 795,396 C781,451 736,494 687,520 C637,547 578,555 522,553 C487,552 457,551 429,529 C401,507 384,470 349,468 C314,466 290,510 258,525 Z" fill="none" stroke="#ef4444" stroke-width="18" stroke-linejoin="round" stroke-linecap="round" opacity="1"/>
  <path d="M248,520 C217,492 184,449 184,406 C185,355 214,315 248,281 C287,243 333,205 386,185 C454,159 529,157 600,163 C662,169 720,200 758,247 C791,288 808,344 795,396 C781,451 736,494 687,520 C637,547 578,555 522,553 C487,552 457,551 429,529 C401,507 384,470 349,468 C314,466 290,510 258,525 Z" fill="none" stroke="#ffffff" stroke-width="4" stroke-linejoin="round" stroke-linecap="round" opacity="0.75"/>
  <text x="500" y="654" text-anchor="middle" font-family="Arial, Helvetica, sans-serif" font-size="34" font-weight="700" fill="#ef4444">ESP</text>
</svg>