<svg viewBox="0 0 1000 700" xmlns="http://www.w3.org/2000/svg" aria-label="GBR track layout">
  <rect width="1000" height="700" fill="transparent"/>
  <path d="M140,454 C123,412 118,362 133,320 C154,261 214,227 269,210 C316,196 368,213 414,199 C468,183 498,128 553,119 C613,109 684,129 735,162 C790,197 834,250 842,314 C849,371 830,434 784,468 C742,499 683,490 640,518 C589,551 561,603 504,612 C444,621 390,577 330,570 C262,562 182,555 148,491 C142,480 146,467 140,454 Z" fill="none" stroke="#0f172a" stroke-width="34" stroke-linejoin="round" stroke-linecap="round" opacity="0.98"/>
  <path d="M140,454 C123,412 118,362 133,320 C154,261 214,227 269,210 C316,196 368,213 414,199 C468,183 498,128 553,119 C613,109 684,129 735,162 C790,197 834,250 842,314 C849,371 830,434 784,468 C742,499 683,490 640,518 C589,551 561,603 504,612 C444,621 390,577 330,570 C262,562 182,555 148,491 C142,480 146,467 140,454 Z" fill="none" stroke="#ef4444" stroke-width="18" stroke-linejoin="round" stroke-linecap="round" opacity="1"/>
  <path d="M140,454 C123,412 118,362 133,320 C154,261 214,227 269,210 C316,196 368,213 414,199 C468,183 498,128 553,119 C613,109 684,129 735,162 C790,197 834,250 842,314 C849,371 830,434 784,468 C742,499 683,490 640,518 C589,551 561,603 504,612 C444,621 390,577 330,570 C262,562 182,555 148,491 C142,480 146,467 140,454 Z" fill="none" stroke="#ffffff" stroke-width="4" stroke-linejoin="round" stroke-linecap="round" opacity="0.75"/>
  <text x="500" y="654" text-anchor="middle" font-family="Arial, Helvetica, sans-serif" font-size="34" font-weight="700" fill="#ef4444">GBR</text>
</svg>