<svg viewBox="0 0 1000 700" xmlns="http://www.w3.org/2000/svg" aria-label="GBR track outline">
  <rect width="1000" height="700" fill="transparent"/>
  <path d="M 150 470 L 120 370 L 170 280 L 270 220 L 390 200 L 500 150 L 640 160 L 760 220 L 830 320 L 820 420 L 740 500 L 630 550 L 510 520 L 430 450 L 330 490 L 240 560 Z" fill="none" stroke="#111827" stroke-width="34" stroke-linejoin="round" stroke-linecap="round" opacity="0.95"/>
  <path d="M 150 470 L 120 370 L 170 280 L 270 220 L 390 200 L 500 150 L 640 160 L 760 220 L 830 320 L 820 420 L 740 500 L 630 550 L 510 520 L 430 450 L 330 490 L 240 560 Z" fill="none" stroke="#ff2d55" stroke-width="18" stroke-linejoin="round" stroke-linecap="round" opacity="1"/>
  <path d="M 150 470 L 120 370 L 170 280 L 270 220 L 390 200 L 500 150 L 640 160 L 760 220 L 830 320 L 820 420 L 740 500 L 630 550 L 510 520 L 430 450 L 330 490 L 240 560 Z" fill="none" stroke="#ffffff" stroke-width="4" stroke-linejoin="round" stroke-linecap="round" opacity="0.75"/>
  <line x1="117.0" y1="402.0" x2="153.0" y2="438.0" stroke="#ffffff" stroke-width="6" stroke-linecap="round" opacity="1"/>
  <line x1="117.0" y1="438.0" x2="153.0" y2="402.0" stroke="#111827" stroke-width="4" stroke-linecap="round" opacity="1"/>
  <text x="500" y="655" text-anchor="middle" font-family="Arial, Helvetica, sans-serif" font-size="34" font-weight="700" fill="#ff2d55">GBR</text>
</svg>
