<svg viewBox="0 0 1000 700" xmlns="http://www.w3.org/2000/svg" aria-label="HUN track layout">
  <rect width="1000" height="700" fill="transparent"/>
  <path d="M221,505 C196,468 184,422 191,377 C201,315 241,266 296,237 C355,207 425,194 490,185 C547,177 607,173 659,196 C710,219 749,261 759,315 C770,373 747,435 705,474 C668,509 615,528 564,537 C507,547 445,562 390,544 C353,532 334,494 295,490 C267,487 240,531 221,505 Z" fill="none" stroke="#0f172a" stroke-width="34" stroke-linejoin="round" stroke-linecap="round" opacity="0.98"/>
  <path d="M221,505 C196,468 184,422 191,377 C201,315 241,266 296,237 C355,207 425,194 490,185 C547,177 607,173 659,196 C710,219 749,261 759,315 C770,373 747,435 705,474 C668,509 615,528 564,537 C507,547 445,562 390,544 C353,532 334,494 295,490 C267,487 240,531 221,505 Z" fill="none" stroke="#ef4444" stroke-width="18" stroke-linejoin="round" stroke-linecap="round" opacity="1"/>
  <path d="M221,505 C196,468 184,422 191,377 C201,315 241,266 296,237 C355,207 425,194 490,185 C547,177 607,173 659,196 C710,219 749,261 759,315 C770,373 747,435 705,474 C668,509 615,528 564,537 C507,547 445,562 390,544 C353,532 334,494 295,490 C267,487 240,531 221,505 Z" fill="none" stroke="#ffffff" stroke-width="4" stroke-linejoin="round" stroke-linecap="round" opacity="0.75"/>
  <text x="500" y="654" text-anchor="middle" font-family="Arial, Helvetica, sans-serif" font-size="34" font-weight="700" fill="#ef4444">HUN</text>
</svg>