<svg viewBox="0 0 1000 700" xmlns="http://www.w3.org/2000/svg" aria-label="HUN track outline">
  <rect width="1000" height="700" fill="transparent"/>
  <path d="M 220 500 L 180 430 L 190 330 L 260 250 L 380 200 L 520 180 L 650 220 L 730 310 L 730 420 L 660 500 L 560 550 L 450 530 L 360 470 L 290 520 Z" fill="none" stroke="#111827" stroke-width="34" stroke-linejoin="round" stroke-linecap="round" opacity="0.95"/>
  <path d="M 220 500 L 180 430 L 190 330 L 260 250 L 380 200 L 520 180 L 650 220 L 730 310 L 730 420 L 660 500 L 560 550 L 450 530 L 360 470 L 290 520 Z" fill="none" stroke="#ff2d55" stroke-width="18" stroke-linejoin="round" stroke-linecap="round" opacity="1"/>
  <path d="M 220 500 L 180 430 L 190 330 L 260 250 L 380 200 L 520 180 L 650 220 L 730 310 L 730 420 L 660 500 L 560 550 L 450 530 L 360 470 L 290 520 Z" fill="none" stroke="#ffffff" stroke-width="4" stroke-linejoin="round" stroke-linecap="round" opacity="0.75"/>
  <line x1="182.0" y1="447.0" x2="218.0" y2="483.0" stroke="#ffffff" stroke-width="6" stroke-linecap="round" opacity="1"/>
  <line x1="182.0" y1="483.0" x2="218.0" y2="447.0" stroke="#111827" stroke-width="4" stroke-linecap="round" opacity="1"/>
  <text x="500" y="655" text-anchor="middle" font-family="Arial, Helvetica, sans-serif" font-size="34" font-weight="700" fill="#ff2d55">HUN</text>
</svg>
