<svg viewBox="0 0 1000 700" xmlns="http://www.w3.org/2000/svg" aria-label="IMO track layout">
  <rect width="1000" height="700" fill="transparent"/>
  <path d="M247,543 C203,506 179,451 185,395 C193,321 216,245 279,205 C338,167 420,177 494,170 C563,164 639,129 707,154 C762,175 812,219 828,278 C844,335 830,406 793,452 C758,495 703,520 647,532 C595,543 541,550 501,525 C464,503 446,445 403,437 C356,428 328,490 286,525 C275,534 262,540 247,543 Z" fill="none" stroke="#0f172a" stroke-width="34" stroke-linejoin="round" stroke-linecap="round" opacity="0.98"/>
  <path d="M247,543 C203,506 179,451 185,395 C193,321 216,245 279,205 C338,167 420,177 494,170 C563,164 639,129 707,154 C762,175 812,219 828,278 C844,335 830,406 793,452 C758,495 703,520 647,532 C595,543 541,550 501,525 C464,503 446,445 403,437 C356,428 328,490 286,525 C275,534 262,540 247,543 Z" fill="none" stroke="#ef4444" stroke-width="18" stroke-linejoin="round" stroke-linecap="round" opacity="1"/>
  <path d="M247,543 C203,506 179,451 185,395 C193,321 216,245 279,205 C338,167 420,177 494,170 C563,164 639,129 707,154 C762,175 812,219 828,278 C844,335 830,406 793,452 C758,495 703,520 647,532 C595,543 541,550 501,525 C464,503 446,445 403,437 C356,428 328,490 286,525 C275,534 262,540 247,543 Z" fill="none" stroke="#ffffff" stroke-width="4" stroke-linejoin="round" stroke-linecap="round" opacity="0.75"/>
  <text x="500" y="654" text-anchor="middle" font-family="Arial, Helvetica, sans-serif" font-size="34" font-weight="700" fill="#ef4444">IMO</text>
</svg>