<svg viewBox="0 0 1000 700" xmlns="http://www.w3.org/2000/svg" aria-label="IMO track outline">
  <rect width="1000" height="700" fill="transparent"/>
  <path d="M 240 540 L 170 460 L 180 330 L 250 220 L 380 170 L 500 180 L 620 140 L 760 200 L 830 320 L 800 430 L 690 510 L 560 550 L 460 520 L 370 470 L 320 550 Z" fill="none" stroke="#111827" stroke-width="34" stroke-linejoin="round" stroke-linecap="round" opacity="0.95"/>
  <path d="M 240 540 L 170 460 L 180 330 L 250 220 L 380 170 L 500 180 L 620 140 L 760 200 L 830 320 L 800 430 L 690 510 L 560 550 L 460 520 L 370 470 L 320 550 Z" fill="none" stroke="#ff2d55" stroke-width="18" stroke-linejoin="round" stroke-linecap="round" opacity="1"/>
  <path d="M 240 540 L 170 460 L 180 330 L 250 220 L 380 170 L 500 180 L 620 140 L 760 200 L 830 320 L 800 430 L 690 510 L 560 550 L 460 520 L 370 470 L 320 550 Z" fill="none" stroke="#ffffff" stroke-width="4" stroke-linejoin="round" stroke-linecap="round" opacity="0.75"/>
  <line x1="187.0" y1="482.0" x2="223.0" y2="518.0" stroke="#ffffff" stroke-width="6" stroke-linecap="round" opacity="1"/>
  <line x1="187.0" y1="518.0" x2="223.0" y2="482.0" stroke="#111827" stroke-width="4" stroke-linecap="round" opacity="1"/>
  <text x="500" y="655" text-anchor="middle" font-family="Arial, Helvetica, sans-serif" font-size="34" font-weight="700" fill="#ff2d55">IMO</text>
</svg>
