<svg viewBox="0 0 1000 700" xmlns="http://www.w3.org/2000/svg" aria-label="ITA track layout">
  <rect width="1000" height="700" fill="transparent"/>
  <path d="M183,501 C154,458 150,403 165,355 C184,297 218,239 276,218 C334,197 401,217 462,212 C514,208 548,166 598,154 C662,138 742,149 793,191 C839,229 862,292 851,350 C840,412 793,461 736,486 C682,510 618,493 561,510 C499,529 475,596 409,597 C351,598 301,549 243,539 C218,535 197,522 183,501 Z" fill="none" stroke="#0f172a" stroke-width="34" stroke-linejoin="round" stroke-linecap="round" opacity="0.98"/>
  <path d="M183,501 C154,458 150,403 165,355 C184,297 218,239 276,218 C334,197 401,217 462,212 C514,208 548,166 598,154 C662,138 742,149 793,191 C839,229 862,292 851,350 C840,412 793,461 736,486 C682,510 618,493 561,510 C499,529 475,596 409,597 C351,598 301,549 243,539 C218,535 197,522 183,501 Z" fill="none" stroke="#ef4444" stroke-width="18" stroke-linejoin="round" stroke-linecap="round" opacity="1"/>
  <path d="M183,501 C154,458 150,403 165,355 C184,297 218,239 276,218 C334,197 401,217 462,212 C514,208 548,166 598,154 C662,138 742,149 793,191 C839,229 862,292 851,350 C840,412 793,461 736,486 C682,510 618,493 561,510 C499,529 475,596 409,597 C351,598 301,549 243,539 C218,535 197,522 183,501 Z" fill="none" stroke="#ffffff" stroke-width="4" stroke-linejoin="round" stroke-linecap="round" opacity="0.75"/>
  <text x="500" y="654" text-anchor="middle" font-family="Arial, Helvetica, sans-serif" font-size="34" font-weight="700" fill="#ef4444">ITA</text>
</svg>