<svg viewBox="0 0 1000 700" xmlns="http://www.w3.org/2000/svg" aria-label="ITA track outline">
  <rect width="1000" height="700" fill="transparent"/>
  <path d="M 200 510 L 150 420 L 180 300 L 280 210 L 410 170 L 550 180 L 680 220 L 790 300 L 810 410 L 740 500 L 620 550 L 500 520 L 410 450 L 320 500 L 250 560 Z" fill="none" stroke="#111827" stroke-width="34" stroke-linejoin="round" stroke-linecap="round" opacity="0.95"/>
  <path d="M 200 510 L 150 420 L 180 300 L 280 210 L 410 170 L 550 180 L 680 220 L 790 300 L 810 410 L 740 500 L 620 550 L 500 520 L 410 450 L 320 500 L 250 560 Z" fill="none" stroke="#ff2d55" stroke-width="18" stroke-linejoin="round" stroke-linecap="round" opacity="1"/>
  <path d="M 200 510 L 150 420 L 180 300 L 280 210 L 410 170 L 550 180 L 680 220 L 790 300 L 810 410 L 740 500 L 620 550 L 500 520 L 410 450 L 320 500 L 250 560 Z" fill="none" stroke="#ffffff" stroke-width="4" stroke-linejoin="round" stroke-linecap="round" opacity="0.75"/>
  <line x1="157.0" y1="447.0" x2="193.0" y2="483.0" stroke="#ffffff" stroke-width="6" stroke-linecap="round" opacity="1"/>
  <line x1="157.0" y1="483.0" x2="193.0" y2="447.0" stroke="#111827" stroke-width="4" stroke-linecap="round" opacity="1"/>
  <text x="500" y="655" text-anchor="middle" font-family="Arial, Helvetica, sans-serif" font-size="34" font-weight="700" fill="#ff2d55">ITA</text>
</svg>
