<svg viewBox="0 0 1000 700" xmlns="http://www.w3.org/2000/svg" aria-label="JED track layout">
  <rect width="1000" height="700" fill="transparent"/>
  <path d="M118,553 C106,498 105,436 124,387 C143,338 130,292 156,246 C187,192 249,177 300,162 C359,145 404,100 467,89 C546,75 627,91 697,124 C768,157 833,204 862,280 C884,336 872,405 845,458 C818,511 767,552 710,576 C638,605 564,584 495,555 C459,540 426,500 385,511 C339,524 317,578 273,593 C221,610 164,590 132,561 Z" fill="none" stroke="#0f172a" stroke-width="34" stroke-linejoin="round" stroke-linecap="round" opacity="0.98"/>
  <path d="M118,553 C106,498 105,436 124,387 C143,338 130,292 156,246 C187,192 249,177 300,162 C359,145 404,100 467,89 C546,75 627,91 697,124 C768,157 833,204 862,280 C884,336 872,405 845,458 C818,511 767,552 710,576 C638,605 564,584 495,555 C459,540 426,500 385,511 C339,524 317,578 273,593 C221,610 164,590 132,561 Z" fill="none" stroke="#ef4444" stroke-width="18" stroke-linejoin="round" stroke-linecap="round" opacity="1"/>
  <path d="M118,553 C106,498 105,436 124,387 C143,338 130,292 156,246 C187,192 249,177 300,162 C359,145 404,100 467,89 C546,75 627,91 697,124 C768,157 833,204 862,280 C884,336 872,405 845,458 C818,511 767,552 710,576 C638,605 564,584 495,555 C459,540 426,500 385,511 C339,524 317,578 273,593 C221,610 164,590 132,561 Z" fill="none" stroke="#ffffff" stroke-width="4" stroke-linejoin="round" stroke-linecap="round" opacity="0.75"/>
  <text x="500" y="654" text-anchor="middle" font-family="Arial, Helvetica, sans-serif" font-size="34" font-weight="700" fill="#ef4444">JED</text>
</svg>