<svg viewBox="0 0 1000 700" xmlns="http://www.w3.org/2000/svg" aria-label="JPN track outline">
  <rect width="1000" height="700" fill="transparent"/>
  <path d="M 230 530 L 170 450 L 210 360 L 320 310 L 420 260 L 390 170 L 500 120 L 620 170 L 600 280 L 730 310 L 820 400 L 760 500 L 650 560 L 540 530 L 470 450 L 370 470 L 320 570 Z" fill="none" stroke="#111827" stroke-width="34" stroke-linejoin="round" stroke-linecap="round" opacity="0.95"/>
  <path d="M 230 530 L 170 450 L 210 360 L 320 310 L 420 260 L 390 170 L 500 120 L 620 170 L 600 280 L 730 310 L 820 400 L 760 500 L 650 560 L 540 530 L 470 450 L 370 470 L 320 570 Z" fill="none" stroke="#ff2d55" stroke-width="18" stroke-linejoin="round" stroke-linecap="round" opacity="1"/>
  <path d="M 230 530 L 170 450 L 210 360 L 320 310 L 420 260 L 390 170 L 500 120 L 620 170 L 600 280 L 730 310 L 820 400 L 760 500 L 650 560 L 540 530 L 470 450 L 370 470 L 320 570 Z" fill="none" stroke="#ffffff" stroke-width="4" stroke-linejoin="round" stroke-linecap="round" opacity="0.75"/>
  <line x1="182.0" y1="472.0" x2="218.0" y2="508.0" stroke="#ffffff" stroke-width="6" stroke-linecap="round" opacity="1"/>
  <line x1="182.0" y1="508.0" x2="218.0" y2="472.0" stroke="#111827" stroke-width="4" stroke-linecap="round" opacity="1"/>
  <text x="500" y="655" text-anchor="middle" font-family="Arial, Helvetica, sans-serif" font-size="34" font-weight="700" fill="#ff2d55">JPN</text>
</svg>
