<svg viewBox="0 0 1000 700" xmlns="http://www.w3.org/2000/svg" aria-label="JPN track layout">
  <rect width="1000" height="700" fill="transparent"/>
  <path d="M325,559 C279,540 239,510 228,463 C216,411 248,366 285,335 C318,307 359,290 390,260 C422,228 430,182 418,142 C406,101 434,77 474,88 C520,101 539,145 535,192 C531,242 569,262 615,275 C674,291 738,307 782,351 C821,390 835,446 817,494 C799,540 750,571 701,582 C651,593 604,569 556,554 C523,544 501,558 495,592 C491,616 472,626 449,622 C406,616 394,567 357,566 C346,566 336,564 325,559 Z M378,327 C345,351 316,391 325,435 C333,475 372,502 412,504 C453,506 494,483 509,445 C522,414 513,377 492,351 C470,324 438,312 404,311 C394,311 386,316 378,327 Z" fill="none" stroke="#0f172a" stroke-width="34" stroke-linejoin="round" stroke-linecap="round" opacity="0.98"/>
  <path d="M325,559 C279,540 239,510 228,463 C216,411 248,366 285,335 C318,307 359,290 390,260 C422,228 430,182 418,142 C406,101 434,77 474,88 C520,101 539,145 535,192 C531,242 569,262 615,275 C674,291 738,307 782,351 C821,390 835,446 817,494 C799,540 750,571 701,582 C651,593 604,569 556,554 C523,544 501,558 495,592 C491,616 472,626 449,622 C406,616 394,567 357,566 C346,566 336,564 325,559 Z M378,327 C345,351 316,391 325,435 C333,475 372,502 412,504 C453,506 494,483 509,445 C522,414 513,377 492,351 C470,324 438,312 404,311 C394,311 386,316 378,327 Z" fill="none" stroke="#ef4444" stroke-width="18" stroke-linejoin="round" stroke-linecap="round" opacity="1"/>
  <path d="M325,559 C279,540 239,510 228,463 C216,411 248,366 285,335 C318,307 359,290 390,260 C422,228 430,182 418,142 C406,101 434,77 474,88 C520,101 539,145 535,192 C531,242 569,262 615,275 C674,291 738,307 782,351 C821,390 835,446 817,494 C799,540 750,571 701,582 C651,593 604,569 556,554 C523,544 501,558 495,592 C491,616 472,626 449,622 C406,616 394,567 357,566 C346,566 336,564 325,559 Z M378,327 C345,351 316,391 325,435 C333,475 372,502 412,504 C453,506 494,483 509,445 C522,414 513,377 492,351 C470,324 438,312 404,311 C394,311 386,316 378,327 Z" fill="none" stroke="#ffffff" stroke-width="4" stroke-linejoin="round" stroke-linecap="round" opacity="0.75"/>
  <text x="500" y="654" text-anchor="middle" font-family="Arial, Helvetica, sans-serif" font-size="34" font-weight="700" fill="#ef4444">JPN</text>
</svg>