<svg viewBox="0 0 1000 700" xmlns="http://www.w3.org/2000/svg" aria-label="LVS track layout">
  <rect width="1000" height="700" fill="transparent"/>
  <path d="M160,541 C126,500 120,444 129,393 C139,341 177,299 221,270 C276,234 344,220 410,213 C471,206 533,206 594,212 C657,219 725,220 781,251 C834,281 864,337 866,398 C869,455 848,517 802,552 C757,586 691,588 633,589 C571,590 512,578 451,569 C399,561 350,569 298,570 C241,571 194,582 160,541 Z" fill="none" stroke="#0f172a" stroke-width="34" stroke-linejoin="round" stroke-linecap="round" opacity="0.98"/>
  <path d="M160,541 C126,500 120,444 129,393 C139,341 177,299 221,270 C276,234 344,220 410,213 C471,206 533,206 594,212 C657,219 725,220 781,251 C834,281 864,337 866,398 C869,455 848,517 802,552 C757,586 691,588 633,589 C571,590 512,578 451,569 C399,561 350,569 298,570 C241,571 194,582 160,541 Z" fill="none" stroke="#ef4444" stroke-width="18" stroke-linejoin="round" stroke-linecap="round" opacity="1"/>
  <path d="M160,541 C126,500 120,444 129,393 C139,341 177,299 221,270 C276,234 344,220 410,213 C471,206 533,206 594,212 C657,219 725,220 781,251 C834,281 864,337 866,398 C869,455 848,517 802,552 C757,586 691,588 633,589 C571,590 512,578 451,569 C399,561 350,569 298,570 C241,571 194,582 160,541 Z" fill="none" stroke="#ffffff" stroke-width="4" stroke-linejoin="round" stroke-linecap="round" opacity="0.75"/>
  <text x="500" y="654" text-anchor="middle" font-family="Arial, Helvetica, sans-serif" font-size="34" font-weight="700" fill="#ef4444">LVS</text>
</svg>