<svg viewBox="0 0 1000 700" xmlns="http://www.w3.org/2000/svg" aria-label="LVS track outline">
  <rect width="1000" height="700" fill="transparent"/>
  <path d="M 170 540 L 130 450 L 150 330 L 240 250 L 360 220 L 500 200 L 650 220 L 780 270 L 850 360 L 840 470 L 760 560 L 630 590 L 500 570 L 390 500 L 290 520 L 220 590 Z" fill="none" stroke="#111827" stroke-width="34" stroke-linejoin="round" stroke-linecap="round" opacity="0.95"/>
  <path d="M 170 540 L 130 450 L 150 330 L 240 250 L 360 220 L 500 200 L 650 220 L 780 270 L 850 360 L 840 470 L 760 560 L 630 590 L 500 570 L 390 500 L 290 520 L 220 590 Z" fill="none" stroke="#ff2d55" stroke-width="18" stroke-linejoin="round" stroke-linecap="round" opacity="1"/>
  <path d="M 170 540 L 130 450 L 150 330 L 240 250 L 360 220 L 500 200 L 650 220 L 780 270 L 850 360 L 840 470 L 760 560 L 630 590 L 500 570 L 390 500 L 290 520 L 220 590 Z" fill="none" stroke="#ffffff" stroke-width="4" stroke-linejoin="round" stroke-linecap="round" opacity="0.75"/>
  <line x1="132.0" y1="477.0" x2="168.0" y2="513.0" stroke="#ffffff" stroke-width="6" stroke-linecap="round" opacity="1"/>
  <line x1="132.0" y1="513.0" x2="168.0" y2="477.0" stroke="#111827" stroke-width="4" stroke-linecap="round" opacity="1"/>
  <text x="500" y="655" text-anchor="middle" font-family="Arial, Helvetica, sans-serif" font-size="34" font-weight="700" fill="#ff2d55">LVS</text>
</svg>
