<svg viewBox="0 0 1000 700" xmlns="http://www.w3.org/2000/svg" aria-label="MAD track layout">
  <rect width="1000" height="700" fill="transparent"/>
  <path d="M214,518 C191,474 183,423 191,374 C201,318 232,266 279,233 C327,199 389,189 445,179 C505,168 564,159 625,170 C682,180 737,205 774,250 C810,293 814,356 797,410 C780,462 745,510 693,531 C638,554 577,538 524,516 C474,495 446,473 398,496 C351,519 346,584 293,589 C247,593 226,541 214,518 Z" fill="none" stroke="#0f172a" stroke-width="34" stroke-linejoin="round" stroke-linecap="round" opacity="0.98"/>
  <path d="M214,518 C191,474 183,423 191,374 C201,318 232,266 279,233 C327,199 389,189 445,179 C505,168 564,159 625,170 C682,180 737,205 774,250 C810,293 814,356 797,410 C780,462 745,510 693,531 C638,554 577,538 524,516 C474,495 446,473 398,496 C351,519 346,584 293,589 C247,593 226,541 214,518 Z" fill="none" stroke="#ef4444" stroke-width="18" stroke-linejoin="round" stroke-linecap="round" opacity="1"/>
  <path d="M214,518 C191,474 183,423 191,374 C201,318 232,266 279,233 C327,199 389,189 445,179 C505,168 564,159 625,170 C682,180 737,205 774,250 C810,293 814,356 797,410 C780,462 745,510 693,531 C638,554 577,538 524,516 C474,495 446,473 398,496 C351,519 346,584 293,589 C247,593 226,541 214,518 Z" fill="none" stroke="#ffffff" stroke-width="4" stroke-linejoin="round" stroke-linecap="round" opacity="0.75"/>
  <text x="500" y="654" text-anchor="middle" font-family="Arial, Helvetica, sans-serif" font-size="34" font-weight="700" fill="#ef4444">MAD</text>
</svg>