<svg viewBox="0 0 1000 700" xmlns="http://www.w3.org/2000/svg" aria-label="MEX track layout">
  <rect width="1000" height="700" fill="transparent"/>
  <path d="M164,509 C139,460 141,398 161,349 C185,292 227,239 279,207 C334,173 403,164 467,164 C527,164 587,159 646,173 C710,188 775,218 810,275 C840,324 839,389 813,441 C788,492 738,531 684,548 C631,566 571,566 518,544 C464,522 427,482 366,496 C321,507 292,577 246,568 C208,561 184,548 164,509 Z" fill="none" stroke="#0f172a" stroke-width="34" stroke-linejoin="round" stroke-linecap="round" opacity="0.98"/>
  <path d="M164,509 C139,460 141,398 161,349 C185,292 227,239 279,207 C334,173 403,164 467,164 C527,164 587,159 646,173 C710,188 775,218 810,275 C840,324 839,389 813,441 C788,492 738,531 684,548 C631,566 571,566 518,544 C464,522 427,482 366,496 C321,507 292,577 246,568 C208,561 184,548 164,509 Z" fill="none" stroke="#ef4444" stroke-width="18" stroke-linejoin="round" stroke-linecap="round" opacity="1"/>
  <path d="M164,509 C139,460 141,398 161,349 C185,292 227,239 279,207 C334,173 403,164 467,164 C527,164 587,159 646,173 C710,188 775,218 810,275 C840,324 839,389 813,441 C788,492 738,531 684,548 C631,566 571,566 518,544 C464,522 427,482 366,496 C321,507 292,577 246,568 C208,561 184,548 164,509 Z" fill="none" stroke="#ffffff" stroke-width="4" stroke-linejoin="round" stroke-linecap="round" opacity="0.75"/>
  <text x="500" y="654" text-anchor="middle" font-family="Arial, Helvetica, sans-serif" font-size="34" font-weight="700" fill="#ef4444">MEX</text>
</svg>