<svg viewBox="0 0 1000 700" xmlns="http://www.w3.org/2000/svg" aria-label="MIA track layout">
  <rect width="1000" height="700" fill="transparent"/>
  <path d="M154,482 C116,441 101,386 108,330 C117,261 170,217 230,186 C290,156 358,142 425,141 C490,140 554,152 616,153 C665,153 705,138 753,132 C802,126 857,129 889,168 C922,210 905,271 903,322 C901,385 913,455 872,506 C832,556 760,576 692,575 C630,573 571,558 510,545 C462,534 428,537 390,567 C353,595 308,604 261,586 C216,569 187,520 154,482 Z" fill="none" stroke="#0f172a" stroke-width="34" stroke-linejoin="round" stroke-linecap="round" opacity="0.98"/>
  <path d="M154,482 C116,441 101,386 108,330 C117,261 170,217 230,186 C290,156 358,142 425,141 C490,140 554,152 616,153 C665,153 705,138 753,132 C802,126 857,129 889,168 C922,210 905,271 903,322 C901,385 913,455 872,506 C832,556 760,576 692,575 C630,573 571,558 510,545 C462,534 428,537 390,567 C353,595 308,604 261,586 C216,569 187,520 154,482 Z" fill="none" stroke="#ef4444" stroke-width="18" stroke-linejoin="round" stroke-linecap="round" opacity="1"/>
  <path d="M154,482 C116,441 101,386 108,330 C117,261 170,217 230,186 C290,156 358,142 425,141 C490,140 554,152 616,153 C665,153 705,138 753,132 C802,126 857,129 889,168 C922,210 905,271 903,322 C901,385 913,455 872,506 C832,556 760,576 692,575 C630,573 571,558 510,545 C462,534 428,537 390,567 C353,595 308,604 261,586 C216,569 187,520 154,482 Z" fill="none" stroke="#ffffff" stroke-width="4" stroke-linejoin="round" stroke-linecap="round" opacity="0.75"/>
  <text x="500" y="654" text-anchor="middle" font-family="Arial, Helvetica, sans-serif" font-size="34" font-weight="700" fill="#ef4444">MIA</text>
</svg>