<svg viewBox="0 0 1000 700" xmlns="http://www.w3.org/2000/svg" aria-label="MIA track outline">
  <rect width="1000" height="700" fill="transparent"/>
  <path d="M 170 500 L 110 430 L 130 300 L 230 220 L 340 170 L 470 150 L 610 170 L 720 150 L 830 220 L 880 330 L 860 440 L 780 540 L 660 580 L 540 550 L 470 490 L 360 520 L 250 580 Z" fill="none" stroke="#111827" stroke-width="34" stroke-linejoin="round" stroke-linecap="round" opacity="0.95"/>
  <path d="M 170 500 L 110 430 L 130 300 L 230 220 L 340 170 L 470 150 L 610 170 L 720 150 L 830 220 L 880 330 L 860 440 L 780 540 L 660 580 L 540 550 L 470 490 L 360 520 L 250 580 Z" fill="none" stroke="#ff2d55" stroke-width="18" stroke-linejoin="round" stroke-linecap="round" opacity="1"/>
  <path d="M 170 500 L 110 430 L 130 300 L 230 220 L 340 170 L 470 150 L 610 170 L 720 150 L 830 220 L 880 330 L 860 440 L 780 540 L 660 580 L 540 550 L 470 490 L 360 520 L 250 580 Z" fill="none" stroke="#ffffff" stroke-width="4" stroke-linejoin="round" stroke-linecap="round" opacity="0.75"/>
  <line x1="122.0" y1="447.0" x2="158.0" y2="483.0" stroke="#ffffff" stroke-width="6" stroke-linecap="round" opacity="1"/>
  <line x1="122.0" y1="483.0" x2="158.0" y2="447.0" stroke="#111827" stroke-width="4" stroke-linecap="round" opacity="1"/>
  <text x="500" y="655" text-anchor="middle" font-family="Arial, Helvetica, sans-serif" font-size="34" font-weight="700" fill="#ff2d55">MIA</text>
</svg>
