<svg viewBox="0 0 1000 700" xmlns="http://www.w3.org/2000/svg" aria-label="MON track layout">
  <rect width="1000" height="700" fill="transparent"/>
  <path d="M310,581 C267,570 230,540 215,498 C201,460 212,422 235,391 C258,360 295,343 325,316 C355,290 367,250 396,223 C438,184 494,150 553,151 C607,152 662,176 711,198 C753,217 789,251 804,295 C820,342 811,394 778,430 C748,463 699,478 678,518 C660,551 652,602 614,615 C576,628 542,587 503,585 C468,584 440,608 406,608 C370,608 344,590 310,581 Z" fill="none" stroke="#0f172a" stroke-width="34" stroke-linejoin="round" stroke-linecap="round" opacity="0.98"/>
  <path d="M310,581 C267,570 230,540 215,498 C201,460 212,422 235,391 C258,360 295,343 325,316 C355,290 367,250 396,223 C438,184 494,150 553,151 C607,152 662,176 711,198 C753,217 789,251 804,295 C820,342 811,394 778,430 C748,463 699,478 678,518 C660,551 652,602 614,615 C576,628 542,587 503,585 C468,584 440,608 406,608 C370,608 344,590 310,581 Z" fill="none" stroke="#ef4444" stroke-width="18" stroke-linejoin="round" stroke-linecap="round" opacity="1"/>
  <path d="M310,581 C267,570 230,540 215,498 C201,460 212,422 235,391 C258,360 295,343 325,316 C355,290 367,250 396,223 C438,184 494,150 553,151 C607,152 662,176 711,198 C753,217 789,251 804,295 C820,342 811,394 778,430 C748,463 699,478 678,518 C660,551 652,602 614,615 C576,628 542,587 503,585 C468,584 440,608 406,608 C370,608 344,590 310,581 Z" fill="none" stroke="#ffffff" stroke-width="4" stroke-linejoin="round" stroke-linecap="round" opacity="0.75"/>
  <text x="500" y="654" text-anchor="middle" font-family="Arial, Helvetica, sans-serif" font-size="34" font-weight="700" fill="#ef4444">MON</text>
</svg>