<svg viewBox="0 0 1000 700" xmlns="http://www.w3.org/2000/svg" aria-label="MON track outline">
  <rect width="1000" height="700" fill="transparent"/>
  <path d="M 260 570 L 200 500 L 200 390 L 260 300 L 360 260 L 430 190 L 510 150 L 580 200 L 670 210 L 760 260 L 780 360 L 720 430 L 650 500 L 560 520 L 520 590 L 430 570 L 340 520 Z" fill="none" stroke="#111827" stroke-width="34" stroke-linejoin="round" stroke-linecap="round" opacity="0.95"/>
  <path d="M 260 570 L 200 500 L 200 390 L 260 300 L 360 260 L 430 190 L 510 150 L 580 200 L 670 210 L 760 260 L 780 360 L 720 430 L 650 500 L 560 520 L 520 590 L 430 570 L 340 520 Z" fill="none" stroke="#ff2d55" stroke-width="18" stroke-linejoin="round" stroke-linecap="round" opacity="1"/>
  <path d="M 260 570 L 200 500 L 200 390 L 260 300 L 360 260 L 430 190 L 510 150 L 580 200 L 670 210 L 760 260 L 780 360 L 720 430 L 650 500 L 560 520 L 520 590 L 430 570 L 340 520 Z" fill="none" stroke="#ffffff" stroke-width="4" stroke-linejoin="round" stroke-linecap="round" opacity="0.75"/>
  <line x1="212.0" y1="517.0" x2="248.0" y2="553.0" stroke="#ffffff" stroke-width="6" stroke-linecap="round" opacity="1"/>
  <line x1="212.0" y1="553.0" x2="248.0" y2="517.0" stroke="#111827" stroke-width="4" stroke-linecap="round" opacity="1"/>
  <text x="500" y="655" text-anchor="middle" font-family="Arial, Helvetica, sans-serif" font-size="34" font-weight="700" fill="#ff2d55">MON</text>
</svg>
