<svg viewBox="0 0 1000 700" xmlns="http://www.w3.org/2000/svg" aria-label="NED track outline">
  <rect width="1000" height="700" fill="transparent"/>
  <path d="M 300 530 L 230 470 L 220 370 L 290 300 L 400 260 L 500 220 L 610 200 L 730 240 L 800 320 L 780 430 L 690 500 L 560 540 L 460 510 L 390 450 L 350 560 Z" fill="none" stroke="#111827" stroke-width="34" stroke-linejoin="round" stroke-linecap="round" opacity="0.95"/>
  <path d="M 300 530 L 230 470 L 220 370 L 290 300 L 400 260 L 500 220 L 610 200 L 730 240 L 800 320 L 780 430 L 690 500 L 560 540 L 460 510 L 390 450 L 350 560 Z" fill="none" stroke="#ff2d55" stroke-width="18" stroke-linejoin="round" stroke-linecap="round" opacity="1"/>
  <path d="M 300 530 L 230 470 L 220 370 L 290 300 L 400 260 L 500 220 L 610 200 L 730 240 L 800 320 L 780 430 L 690 500 L 560 540 L 460 510 L 390 450 L 350 560 Z" fill="none" stroke="#ffffff" stroke-width="4" stroke-linejoin="round" stroke-linecap="round" opacity="0.75"/>
  <line x1="247.0" y1="482.0" x2="283.0" y2="518.0" stroke="#ffffff" stroke-width="6" stroke-linecap="round" opacity="1"/>
  <line x1="247.0" y1="518.0" x2="283.0" y2="482.0" stroke="#111827" stroke-width="4" stroke-linecap="round" opacity="1"/>
  <text x="500" y="655" text-anchor="middle" font-family="Arial, Helvetica, sans-serif" font-size="34" font-weight="700" fill="#ff2d55">NED</text>
</svg>
