<svg viewBox="0 0 1000 700" xmlns="http://www.w3.org/2000/svg" aria-label="NED track layout">
  <rect width="1000" height="700" fill="transparent"/>
  <path d="M324,563 C281,555 246,517 237,475 C229,435 255,398 284,373 C322,341 370,336 408,307 C449,276 464,211 518,207 C576,203 611,263 655,285 C710,314 786,317 809,377 C828,426 804,480 764,514 C720,551 655,564 597,557 C548,551 509,534 464,566 C425,593 374,573 324,563 Z" fill="none" stroke="#0f172a" stroke-width="34" stroke-linejoin="round" stroke-linecap="round" opacity="0.98"/>
  <path d="M324,563 C281,555 246,517 237,475 C229,435 255,398 284,373 C322,341 370,336 408,307 C449,276 464,211 518,207 C576,203 611,263 655,285 C710,314 786,317 809,377 C828,426 804,480 764,514 C720,551 655,564 597,557 C548,551 509,534 464,566 C425,593 374,573 324,563 Z" fill="none" stroke="#ef4444" stroke-width="18" stroke-linejoin="round" stroke-linecap="round" opacity="1"/>
  <path d="M324,563 C281,555 246,517 237,475 C229,435 255,398 284,373 C322,341 370,336 408,307 C449,276 464,211 518,207 C576,203 611,263 655,285 C710,314 786,317 809,377 C828,426 804,480 764,514 C720,551 655,564 597,557 C548,551 509,534 464,566 C425,593 374,573 324,563 Z" fill="none" stroke="#ffffff" stroke-width="4" stroke-linejoin="round" stroke-linecap="round" opacity="0.75"/>
  <text x="500" y="654" text-anchor="middle" font-family="Arial, Helvetica, sans-serif" font-size="34" font-weight="700" fill="#ef4444">NED</text>
</svg>