<svg viewBox="0 0 1000 700" xmlns="http://www.w3.org/2000/svg" aria-label="SGP track outline">
  <rect width="1000" height="700" fill="transparent"/>
  <path d="M 180 560 L 160 460 L 190 350 L 280 270 L 390 220 L 500 180 L 620 170 L 730 230 L 800 330 L 800 450 L 730 540 L 610 580 L 500 560 L 420 500 L 340 530 L 260 590 Z" fill="none" stroke="#111827" stroke-width="34" stroke-linejoin="round" stroke-linecap="round" opacity="0.95"/>
  <path d="M 180 560 L 160 460 L 190 350 L 280 270 L 390 220 L 500 180 L 620 170 L 730 230 L 800 330 L 800 450 L 730 540 L 610 580 L 500 560 L 420 500 L 340 530 L 260 590 Z" fill="none" stroke="#ff2d55" stroke-width="18" stroke-linejoin="round" stroke-linecap="round" opacity="1"/>
  <path d="M 180 560 L 160 460 L 190 350 L 280 270 L 390 220 L 500 180 L 620 170 L 730 230 L 800 330 L 800 450 L 730 540 L 610 580 L 500 560 L 420 500 L 340 530 L 260 590 Z" fill="none" stroke="#ffffff" stroke-width="4" stroke-linejoin="round" stroke-linecap="round" opacity="0.75"/>
  <line x1="152.0" y1="492.0" x2="188.0" y2="528.0" stroke="#ffffff" stroke-width="6" stroke-linecap="round" opacity="1"/>
  <line x1="152.0" y1="528.0" x2="188.0" y2="492.0" stroke="#111827" stroke-width="4" stroke-linecap="round" opacity="1"/>
  <text x="500" y="655" text-anchor="middle" font-family="Arial, Helvetica, sans-serif" font-size="34" font-weight="700" fill="#ff2d55">SGP</text>
</svg>
