<svg viewBox="0 0 1000 700" xmlns="http://www.w3.org/2000/svg" aria-label="SGP track layout">
  <rect width="1000" height="700" fill="transparent"/>
  <path d="M194,550 C171,508 161,458 166,411 C173,342 212,280 264,235 C317,188 385,166 455,157 C530,147 611,151 680,181 C741,207 797,254 818,320 C836,378 820,443 781,490 C745,534 690,562 634,575 C564,590 495,576 426,570 C378,565 332,568 286,552 C246,538 216,589 194,550 Z" fill="none" stroke="#0f172a" stroke-width="34" stroke-linejoin="round" stroke-linecap="round" opacity="0.98"/>
  <path d="M194,550 C171,508 161,458 166,411 C173,342 212,280 264,235 C317,188 385,166 455,157 C530,147 611,151 680,181 C741,207 797,254 818,320 C836,378 820,443 781,490 C745,534 690,562 634,575 C564,590 495,576 426,570 C378,565 332,568 286,552 C246,538 216,589 194,550 Z" fill="none" stroke="#ef4444" stroke-width="18" stroke-linejoin="round" stroke-linecap="round" opacity="1"/>
  <path d="M194,550 C171,508 161,458 166,411 C173,342 212,280 264,235 C317,188 385,166 455,157 C530,147 611,151 680,181 C741,207 797,254 818,320 C836,378 820,443 781,490 C745,534 690,562 634,575 C564,590 495,576 426,570 C378,565 332,568 286,552 C246,538 216,589 194,550 Z" fill="none" stroke="#ffffff" stroke-width="4" stroke-linejoin="round" stroke-linecap="round" opacity="0.75"/>
  <text x="500" y="654" text-anchor="middle" font-family="Arial, Helvetica, sans-serif" font-size="34" font-weight="700" fill="#ef4444">SGP</text>
</svg>