<svg viewBox="0 0 1000 700" xmlns="http://www.w3.org/2000/svg" aria-label="USA track outline">
  <rect width="1000" height="700" fill="transparent"/>
  <path d="M 210 520 L 160 430 L 180 300 L 280 220 L 410 180 L 550 140 L 690 170 L 780 250 L 820 360 L 800 480 L 720 560 L 600 590 L 500 560 L 430 470 L 330 500 L 260 580 Z" fill="none" stroke="#111827" stroke-width="34" stroke-linejoin="round" stroke-linecap="round" opacity="0.95"/>
  <path d="M 210 520 L 160 430 L 180 300 L 280 220 L 410 180 L 550 140 L 690 170 L 780 250 L 820 360 L 800 480 L 720 560 L 600 590 L 500 560 L 430 470 L 330 500 L 260 580 Z" fill="none" stroke="#ff2d55" stroke-width="18" stroke-linejoin="round" stroke-linecap="round" opacity="1"/>
  <path d="M 210 520 L 160 430 L 180 300 L 280 220 L 410 180 L 550 140 L 690 170 L 780 250 L 820 360 L 800 480 L 720 560 L 600 590 L 500 560 L 430 470 L 330 500 L 260 580 Z" fill="none" stroke="#ffffff" stroke-width="4" stroke-linejoin="round" stroke-linecap="round" opacity="0.75"/>
  <line x1="167.0" y1="457.0" x2="203.0" y2="493.0" stroke="#ffffff" stroke-width="6" stroke-linecap="round" opacity="1"/>
  <line x1="167.0" y1="493.0" x2="203.0" y2="457.0" stroke="#111827" stroke-width="4" stroke-linecap="round" opacity="1"/>
  <text x="500" y="655" text-anchor="middle" font-family="Arial, Helvetica, sans-serif" font-size="34" font-weight="700" fill="#ff2d55">USA</text>
</svg>
